<svg viewBox="0 0 141 24" class="logo" xmlns="http://www.w3.org/2000/svg">
<title>Blueair</title>
<path fill-rule="evenodd" clip-rule="evenodd" d="M11.3552 23.5C17.6264 23.5 22.7103 18.3513 22.7103 12C22.7103 8.95001 21.514 6.02494 19.3845 3.86827C17.255 1.7116 14.3667 0.5 11.3552 0.5C5.08388 0.5 0 5.64873 0 12C0 18.3513 5.08388 23.5 11.3552 23.5ZM126.569 2.65363L125.949 5.61226H121.356L121.965 2.65363H126.569ZM43.9957 2.6537H30.0288L26.0339 21.5451H39.3194C44.966 21.5451 46.7932 18.346 47.3196 15.8264C47.7326 13.7982 47.0512 11.6446 44.966 11.2578V11.1951C46.6466 10.6171 47.8995 9.18121 48.259 7.42097C48.9919 3.9187 46.7106 2.6537 43.9957 2.6537ZM41.9316 15.7218C41.7352 17.0221 40.6185 17.9742 39.3199 17.9486H31.8565L32.7959 13.4532H39.7432C41.529 13.4532 42.2826 14.2477 41.9729 15.7218H41.9316ZM40.5277 10.1705C41.7172 10.2169 42.7421 9.32923 42.8813 8.13185V8.18412C43.1187 6.94003 42.7574 6.09321 40.6928 6.09321H34.3339L33.4771 10.1705H40.5277ZM53.3585 2.6537H57.9625L53.9985 21.5451H49.4048L53.3585 2.6537ZM76.8848 7.35819H72.2911L70.9182 14.4568C70.624 16.8442 68.5631 18.5988 66.1903 18.4818C64.0741 18.4818 63.238 17.52 63.6612 15.565L65.3851 7.35819H60.7811L58.7165 16.9659C57.8288 21.1477 61.2766 22.0782 63.6612 22.0782C65.9571 22.0969 68.1732 21.2254 69.8549 19.6423L69.4626 21.545H73.9118L76.8848 7.35819ZM89.1273 6.83543C83.5892 6.83834 79.413 9.11794 78.2886 14.4568C77.1634 19.7991 80.3531 22.0782 85.9481 22.0782C90.1599 22.0782 93.6283 20.6772 95.6723 17.3109H90.7586C89.7331 18.5817 88.1637 19.2712 86.5468 19.1613C83.45 19.1613 82.5003 17.0704 82.7893 15.7532V15.7009H96.271L96.3432 15.2722C97.4678 9.93291 95.1999 6.83883 89.1273 6.83543ZM89.1273 6.83543L89.1172 6.83543H89.1379L89.1273 6.83543ZM92.0902 12.9514V12.8991H92.0799C92.245 12.1464 91.7702 9.76274 88.3946 9.76274C86.2319 9.63388 84.2199 10.8865 83.3571 12.8991V12.9514H92.0902ZM109.515 6.83543C105.747 6.83543 101.67 7.33725 100.225 11.7072H104.664C105.696 9.74179 106.728 9.61634 108.793 9.61634C111.456 9.61634 112.292 10.1704 112.034 11.31C111.776 12.4495 111.27 12.69 109.866 12.7945L104.901 13.1395C102.052 13.3172 98.8827 14.0595 98.1808 17.4991C97.4788 20.9386 99.7705 22.1095 103.435 22.1095C105.5 22.1095 108.504 21.66 110.413 20.0709C110.346 20.5704 110.346 21.0768 110.413 21.5763H115.007C114.831 20.63 114.86 19.6565 115.09 18.7222L116.555 11.6863C117.123 9.03088 116.163 6.86679 109.577 6.86679L109.515 6.83543ZM105.603 19.3601C107.926 19.3601 110.754 18.2205 111.25 15.8369L111.477 14.6764C110.577 15.0352 109.625 15.2401 108.659 15.2828L105.944 15.5232C104.292 15.6487 103.374 16.1087 103.115 17.3737C102.857 18.6387 103.879 19.3601 105.603 19.3601ZM125.588 7.35819H120.984L118.011 21.545H122.605L125.588 7.35819ZM141 7.12828L140.082 11.4878C139.287 11.2304 138.459 11.0896 137.625 11.0696C134.528 11.0696 132.659 12.6796 132.092 15.4396L130.812 21.5451H126.208L129.191 7.35828H133.63L133.052 10.1392C135.168 7.9751 136.685 7.00283 139.297 7.00283C139.851 6.99482 140.404 7.04033 140.949 7.13874L141 7.12828Z" fill="#002955"/>
</svg>
